<?xml version="1.0" encoding="UTF-8"?>
<svg width="24" height="24" viewBox="0 0 24 24" fill="none" xmlns="http://www.w3.org/2000/svg">
    <!-- Circle background -->
    <circle cx="12" cy="12" r="10" fill="#3498db" stroke="#2c3e50" stroke-width="2"/>
    
    <!-- Question mark -->
    <g fill="#ffffff">
        <!-- Question mark top curve -->
        <path d="M12 6C9.79086 6 8 7.79086 8 10H10C10 8.89543 10.8954 8 12 8C13.1046 8 14 8.89543 14 10C14 10.7403 13.5978 11.3866 13 11.7324V14H11V11C11 10.4477 11.4477 10 12 10C12.5523 10 13 9.55228 13 9C13 8.44772 12.5523 8 12 8C11.4477 8 11 8.44772 11 9H9C9 7.34315 10.3431 6 12 6Z"/>
        
        <!-- Question mark dot -->
        <circle cx="12" cy="16" r="1"/>
    </g>
</svg>
